<svg width="90" height="173" viewBox="0 0 455 173" fill="none" xmlns="http://www.w3.org/2000/svg">
<rect width="455" height="173" rx="25" fill="white" fill-opacity="0.5"/>
<path d="M35.4293 137C35.4293 130.104 42.4356 123.491 54.9067 118.615C67.3779 113.739 84.2924 111 101.929 111C119.566 111 136.481 113.739 148.952 118.615C161.423 123.491 168.429 130.104 168.429 137C168.429 143.896 161.423 150.509 148.952 155.385C136.481 160.261 119.566 163 101.929 163C84.2924 163 67.3779 160.261 54.9067 155.385C42.4356 150.509 35.4293 143.896 35.4293 137ZM101.929 140.25C99.7247 140.25 97.6104 139.908 96.0515 139.298C94.4926 138.689 93.6168 137.862 93.6168 137C93.6168 136.138 94.4926 135.311 96.0515 134.702C97.6104 134.092 99.7247 133.75 101.929 133.75C104.134 133.75 106.248 134.092 107.807 134.702C109.366 135.311 110.242 136.138 110.242 137C110.242 137.862 109.366 138.689 107.807 139.298C106.248 139.908 104.134 140.25 101.929 140.25ZM76.9918 137C76.9918 139.586 79.6192 142.066 84.2958 143.894C88.9725 145.723 95.3155 146.75 101.929 146.75C108.543 146.75 114.886 145.723 119.563 143.894C124.239 142.066 126.867 139.586 126.867 137C126.867 134.414 124.239 131.934 119.563 130.106C114.886 128.277 108.543 127.25 101.929 127.25C95.3155 127.25 88.9725 128.277 84.2958 130.106C79.6192 131.934 76.9918 134.414 76.9918 137ZM60.3668 135.375C60.3668 131.82 64.9127 128.154 72.1082 125.341C79.3037 122.527 88.6813 120.75 97.7731 120.75C100.059 120.75 101.929 120.019 101.929 119.125C101.929 118.231 100.059 117.5 97.7731 117.5C85.9797 117.5 74.602 119.765 66.2115 123.035C57.8211 126.305 52.0543 130.764 52.0543 135.375C52.0543 136.269 53.9246 137 56.2106 137C58.4965 137 60.3668 136.269 60.3668 135.375Z" fill="#C10046" fill-opacity="0.5"/>
<circle cx="119.511" cy="51.4007" r="23.1082" transform="rotate(-20.7485 119.511 51.4007)" fill="white" fill-opacity="0.5" stroke="#C10046" stroke-width="18"/>
<path d="M80.6923 66.0475C80.6923 66.0475 96.0445 78.1143 101.92 82.2916C107.795 86.469 128.019 102.552 137.873 116.405L146.339 98.9617" stroke="#5F2191" stroke-width="18" stroke-linecap="round"/>
<path d="M85.9736 55.6727L126.976 92.0609" stroke="#C10046" stroke-width="18" stroke-linecap="round"/>
<g clip-path="url(#clip0_149_285)">
<path d="M205.797 69.8205C203.202 69.8205 201.316 69.1698 200.14 67.8685C198.965 66.5672 198.377 64.4728 198.377 61.5855C198.377 59.7555 198.64 57.0308 199.167 53.4115C199.694 49.7922 200.708 43.6312 202.208 34.9285L198.985 28.4015C203.567 25.4328 207.743 23.9485 211.514 23.9485C214.636 23.9485 216.197 25.8598 216.197 29.6825C216.197 30.5772 215.954 32.4072 215.468 35.1725C215.022 37.8972 214.515 40.7642 213.947 43.7735C213.177 47.9215 212.568 51.2968 212.122 53.8995C211.717 56.5022 211.514 58.3525 211.514 59.4505C211.514 61.3212 211.636 62.8258 211.879 63.9645C212.163 65.1032 212.649 66.1402 213.339 67.0755C211.149 68.9055 208.635 69.8205 205.797 69.8205ZM218.63 69.7595C216.846 69.7595 215.103 69.5968 213.4 69.2715C211.697 68.9462 209.75 68.3158 207.561 67.3805L210.541 59.9385H218.083C221.205 59.4912 224.206 58.6982 227.085 57.5595C227.531 58.6982 227.754 59.9995 227.754 61.4635C227.754 64.1068 226.963 66.1605 225.382 67.6245C223.8 69.0478 221.55 69.7595 218.63 69.7595ZM248.202 69.7595C244.35 69.7595 240.964 68.9665 238.045 67.3805C235.166 65.7945 232.936 63.5782 231.354 60.7315C229.773 57.8848 228.982 54.6315 228.982 50.9715C228.982 45.7255 230.057 41.0488 232.206 36.9415C234.395 32.8342 237.274 29.6622 240.843 27.4255C244.451 25.1482 248.324 24.0095 252.46 24.0095C255.176 24.0095 257.123 24.4772 258.298 25.4125C259.474 26.3478 260.062 27.8322 260.062 29.8655C260.062 30.5975 260.001 31.2278 259.88 31.7565C259.758 32.2851 259.535 32.9155 259.211 33.6475C258.765 33.5255 258.177 33.4238 257.447 33.3425C256.758 33.2205 256.17 33.1595 255.683 33.1595C253.007 33.1595 250.655 33.9728 248.628 35.5995C246.6 37.1855 245.019 39.3408 243.884 42.0655C242.789 44.7902 242.242 47.7588 242.242 50.9715C242.242 54.9568 243.032 58.0068 244.614 60.1215C246.195 62.2362 248.364 63.2935 251.122 63.2935C253.108 63.2935 255.034 62.7445 256.9 61.6465C258.805 60.5078 260.427 58.9422 261.765 56.9495C263.103 54.9568 263.975 52.6998 264.381 50.1785C261.583 48.8772 259.556 47.2302 258.298 45.2375C257.082 43.2448 256.474 41.0082 256.474 38.5275C256.474 36.2095 257.224 34.2575 258.724 32.6715C260.225 31.0855 262.09 30.2925 264.32 30.2925C267.037 30.2925 269.145 31.3702 270.645 33.5255C272.186 35.6402 272.957 38.5885 272.957 42.3705C272.957 47.5352 271.882 52.2118 269.733 56.4005C267.584 60.5485 264.624 63.8222 260.853 66.2215C257.082 68.5802 252.865 69.7595 248.202 69.7595ZM295.731 69.7595C289.527 69.7595 284.681 68.1328 281.194 64.8795C277.707 61.6262 275.963 57.0918 275.963 51.2765C275.963 46.0712 277.16 41.3945 279.552 37.2465C281.985 33.0578 285.33 29.8045 289.588 27.4865C293.845 25.1278 298.61 23.9485 303.881 23.9485C307.733 23.9485 310.794 24.6602 313.065 26.0835C315.336 27.4662 316.471 29.3368 316.471 31.6955C316.471 33.6068 315.802 35.1928 314.464 36.4535C313.126 37.6735 311.423 38.2835 309.355 38.2835C307.368 38.2835 305.543 37.7548 303.881 36.6975C302.259 35.5995 300.961 34.0338 299.988 32.0005C297.961 32.7731 296.116 34.1355 294.453 36.0875C292.831 38.0395 291.554 40.3575 290.622 43.0415C289.689 45.7255 289.223 48.5518 289.223 51.5205C289.223 55.2212 289.851 58.1085 291.108 60.1825C292.406 62.2565 294.19 63.2935 296.46 63.2935C298.245 63.2935 299.866 62.8055 301.326 61.8295C302.827 60.8128 304.023 59.4505 304.915 57.7425C305.847 56.0345 306.354 54.1435 306.435 52.0695C309.071 52.0695 311.078 52.5575 312.457 53.5335C313.835 54.4688 314.525 55.8922 314.525 57.8035C314.525 59.9995 313.673 62.0125 311.97 63.8425C310.308 65.6725 308.037 67.1162 305.158 68.1735C302.279 69.2308 299.137 69.7595 295.731 69.7595ZM324.729 70.0035C322.864 70.0035 321.445 69.4952 320.471 68.4785C319.539 67.4618 319.073 65.9775 319.073 64.0255C319.073 61.5042 319.944 58.0475 321.688 53.6555C323.472 49.2228 326.736 42.3502 331.48 33.0375L329.473 27.8525C331.744 26.4698 333.812 25.4938 335.677 24.9245C337.542 24.3145 339.569 24.0095 341.759 24.0095C344.07 24.0095 345.733 24.5178 346.746 25.5345C348.652 24.5178 350.355 24.0095 351.856 24.0095C354.085 24.0095 355.708 24.7212 356.722 26.1445C357.735 27.5678 358.242 29.8452 358.242 32.9765C358.242 35.9045 358.221 38.0598 358.182 39.4425C358.141 44.6072 358.16 48.7552 358.242 51.8865C358.364 54.9772 358.708 57.8645 359.276 60.5485C359.844 63.2325 360.776 65.4692 362.074 67.2585C359.722 69.0885 357.187 70.0035 354.471 70.0035C352.321 70.0035 350.579 69.3325 349.24 67.9905C347.902 66.6485 346.909 64.5542 346.26 61.7075C345.652 58.8202 345.368 55.0585 345.408 50.4225C345.408 46.9658 345.429 43.6312 345.469 40.4185C345.55 37.1652 345.652 34.3795 345.773 32.0615H345.043C341.029 38.5275 337.846 44.4038 335.494 49.6905C333.143 54.9365 331.967 58.8812 331.967 61.5245C331.967 62.7038 332.068 63.7408 332.271 64.6355C332.474 65.5302 332.798 66.4045 333.244 67.2585C332.109 68.0718 330.771 68.7225 329.23 69.2105C327.689 69.7392 326.189 70.0035 324.729 70.0035ZM330.02 51.1545H351.065L349.849 58.4135H328.682L330.02 51.1545ZM375.552 69.8205C372.957 69.8205 371.071 69.1698 369.896 67.8685C368.719 66.5672 368.132 64.4728 368.132 61.5855C368.132 59.7555 368.395 57.0308 368.923 53.4115C369.449 49.7922 370.463 43.6312 371.964 34.9285L368.74 28.4015C373.322 25.4328 377.499 23.9485 381.27 23.9485C384.391 23.9485 385.953 25.8598 385.953 29.6825C385.953 30.5772 385.71 32.4072 385.223 35.1725C384.776 37.8972 384.27 40.7642 383.702 43.7735C382.932 47.9215 382.323 51.2968 381.878 53.8995C381.472 56.5022 381.27 58.3525 381.27 59.4505C381.27 61.3212 381.391 62.8258 381.635 63.9645C381.917 65.1032 382.404 66.1402 383.094 67.0755C380.905 68.9055 378.39 69.8205 375.552 69.8205ZM388.386 69.7595C386.601 69.7595 384.858 69.5968 383.155 69.2715C381.452 68.9462 379.506 68.3158 377.316 67.3805L380.296 59.9385H387.838C390.96 59.4912 393.96 58.6982 396.84 57.5595C397.286 58.6982 397.509 59.9995 397.509 61.4635C397.509 64.1068 396.718 66.1605 395.137 67.6245C393.556 69.0478 391.305 69.7595 388.386 69.7595ZM409.17 69.7595C406.575 69.7595 404.689 69.1088 403.514 67.8075C402.338 66.5062 401.75 64.4118 401.75 61.5245C401.75 59.7352 401.993 57.0512 402.48 53.4725C403.007 49.8938 404.041 43.7125 405.582 34.9285L402.358 28.4015C406.94 25.4328 411.116 23.9485 414.887 23.9485C418.009 23.9485 419.571 25.8598 419.571 29.6825C419.571 31.1058 418.821 35.7825 417.32 43.7125C416.549 47.8605 415.941 51.2358 415.496 53.8385C415.09 56.4412 414.887 58.2915 414.887 59.3895C414.887 61.2602 415.009 62.7648 415.252 63.9035C415.537 65.0422 416.023 66.0792 416.712 67.0145C414.401 68.8445 411.887 69.7595 409.17 69.7595Z" fill="#C10046"/>
<path d="M219.124 121.785C217.381 121.785 215.86 121.642 214.563 121.358C213.306 121.032 211.988 120.504 210.609 119.772V112.513C211.299 113.082 212.11 113.509 213.042 113.794C213.975 114.038 214.928 114.16 215.901 114.16C217.766 114.16 219.449 113.753 220.949 112.94C222.49 112.126 223.686 110.988 224.538 109.524C225.43 108.06 225.876 106.433 225.876 104.644C225.876 102.773 225.328 101.187 224.234 99.8855C223.179 98.5843 221.679 97.9335 219.733 97.9335C218.516 97.9335 217.28 98.2385 216.023 98.8485C214.766 99.4178 213.407 100.292 211.947 101.472V95.2495C213.488 94.0703 214.847 93.1348 216.023 92.4435C217.239 91.7523 218.638 91.2033 220.219 90.7965C221.841 90.3493 223.727 90.1255 225.876 90.1255C228.674 90.1255 231.086 90.7558 233.114 92.0165C235.181 93.2773 236.743 94.9445 237.797 97.0185C238.892 99.0925 239.439 101.35 239.439 103.79C239.439 106.799 238.689 109.686 237.189 112.452C235.688 115.176 233.397 117.413 230.316 119.162C227.275 120.91 223.544 121.785 219.124 121.785ZM206.899 135.876C204.304 135.876 202.419 135.225 201.243 133.924C200.067 132.622 199.479 130.528 199.479 127.641C199.479 125.851 199.722 123.167 200.209 119.589C200.736 116.01 201.77 109.808 203.311 100.984L200.087 94.4565C204.669 91.4878 208.846 90.0035 212.617 90.0035C215.739 90.0035 217.3 91.9148 217.3 95.7375C217.3 96.6323 217.057 98.4623 216.57 101.228C216.124 103.952 215.617 106.819 215.049 109.829C214.279 113.977 213.671 117.352 213.225 119.955C212.819 122.557 212.617 124.408 212.617 125.506C212.617 127.376 212.738 128.881 212.981 130.02C213.265 131.158 213.752 132.195 214.441 133.131C212.13 134.961 209.616 135.876 206.899 135.876ZM245.112 136.059C243.246 136.059 241.827 135.55 240.854 134.534C239.921 133.517 239.455 132.033 239.455 130.081C239.455 127.559 240.327 124.103 242.07 119.711C243.855 115.278 247.119 108.405 251.863 99.0925L249.856 93.9075C252.126 92.5248 254.194 91.5488 256.059 90.9795C257.925 90.3695 259.952 90.0645 262.142 90.0645C264.453 90.0645 266.115 90.5728 267.129 91.5895C269.035 90.5728 270.738 90.0645 272.238 90.0645C274.468 90.0645 276.09 90.7763 277.104 92.1995C278.118 93.6228 278.624 95.9003 278.624 99.0315C278.624 101.96 278.604 104.115 278.564 105.498C278.523 110.662 278.543 114.81 278.624 117.942C278.746 121.032 279.091 123.92 279.658 126.604C280.226 129.288 281.159 131.524 282.456 133.314C280.105 135.144 277.57 136.059 274.853 136.059C272.704 136.059 270.961 135.388 269.623 134.046C268.285 132.704 267.291 130.609 266.643 127.763C266.034 124.875 265.751 121.114 265.791 116.478C265.791 113.021 265.811 109.686 265.852 106.474C265.933 103.22 266.034 100.435 266.156 98.1165H265.426C261.412 104.583 258.229 110.459 255.877 115.746C253.525 120.992 252.349 124.936 252.349 127.58C252.349 128.759 252.451 129.796 252.653 130.691C252.856 131.585 253.181 132.46 253.627 133.314C252.491 134.127 251.153 134.778 249.612 135.266C248.072 135.794 246.571 136.059 245.112 136.059ZM250.403 117.21H271.447L270.231 124.469H249.065L250.403 117.21ZM308.16 119.955C306.416 119.955 304.896 119.812 303.598 119.528C302.341 119.202 301.023 118.674 299.645 117.942V110.683C300.334 111.252 301.145 111.679 302.078 111.964C303.01 112.208 303.963 112.33 304.936 112.33C306.801 112.33 308.484 111.984 309.984 111.293C311.525 110.561 312.721 109.544 313.573 108.243C314.465 106.941 314.911 105.437 314.911 103.729C314.911 102.224 314.364 100.882 313.269 99.7025C312.215 98.5233 310.714 97.9335 308.768 97.9335C307.551 97.9335 306.315 98.2385 305.058 98.8485C303.801 99.4178 302.442 100.292 300.983 101.472V95.2495C302.523 94.0703 303.882 93.1348 305.058 92.4435C306.274 91.7523 307.673 91.2033 309.255 90.7965C310.876 90.3493 312.762 90.1255 314.911 90.1255C317.709 90.1255 320.121 90.7355 322.149 91.9555C324.217 93.1348 325.778 94.7005 326.832 96.6525C327.927 98.6045 328.474 100.679 328.474 102.875C328.474 105.803 327.724 108.568 326.224 111.171C324.723 113.773 322.433 115.888 319.351 117.515C316.31 119.141 312.579 119.955 308.16 119.955ZM295.935 135.876C293.339 135.876 291.454 135.225 290.278 133.924C289.102 132.622 288.514 130.528 288.514 127.641C288.514 125.851 288.758 123.167 289.244 119.589C289.771 116.01 290.805 109.808 292.346 100.984L289.122 94.4565C293.704 91.4878 297.881 90.0035 301.652 90.0035C304.774 90.0035 306.335 91.9148 306.335 95.7375C306.335 97.0388 305.686 101.024 304.389 107.694C303.497 112.37 302.807 116.112 302.321 118.918C301.875 121.683 301.652 123.879 301.652 125.506C301.652 127.376 301.773 128.881 302.017 130.02C302.301 131.158 302.787 132.195 303.476 133.131C301.165 134.961 298.651 135.876 295.935 135.876ZM321.601 135.815C319.696 135.815 318.074 135.489 316.736 134.839C315.438 134.229 314.283 133.212 313.269 131.789C312.296 130.325 311.363 128.332 310.471 125.811L307.673 117.881L319.594 113.001C321.257 117.962 323 122.151 324.825 125.567C326.69 128.942 328.515 131.24 330.299 132.46C329.407 133.354 328.089 134.127 326.345 134.778C324.602 135.469 323.02 135.815 321.601 135.815ZM348.367 135.876C345.691 135.876 343.785 135.123 342.65 133.619C341.515 132.073 340.947 129.674 340.947 126.421C340.947 124.306 341.271 121.195 341.92 117.088C342.609 112.94 343.785 106.352 345.448 97.3235L358.282 99.8855L356.944 106.901C355.971 111.984 355.241 115.868 354.754 118.552C354.307 121.195 354.085 123.106 354.085 124.286C354.085 128.23 354.693 131.179 355.91 133.131C353.477 134.961 350.962 135.876 348.367 135.876ZM361.627 104.705C360.207 104.705 358.788 104.603 357.37 104.4C355.949 104.196 354.227 103.891 352.2 103.485C350.253 103.078 348.59 102.773 347.212 102.57C345.833 102.366 344.454 102.244 343.076 102.204L333.831 104.583C333.101 102.834 332.736 100.902 332.736 98.7875C332.736 96.2663 333.547 94.2938 335.169 92.8705C336.791 91.4065 339.001 90.6745 341.798 90.6745C343.218 90.6745 344.637 90.7763 346.056 90.9795C347.475 91.1828 349.199 91.4878 351.227 91.8945C353.173 92.3013 354.835 92.6063 356.214 92.8095C357.592 93.0128 358.971 93.1348 360.35 93.1755L369.595 90.7965C370.325 92.5453 370.69 94.4768 370.69 96.5915C370.69 99.1128 369.878 101.106 368.257 102.57C366.634 103.993 364.425 104.705 361.627 104.705ZM376.805 149.052C372.993 149.052 370.115 148.36 368.169 146.978C366.181 145.636 365.188 143.704 365.188 141.183C365.188 140.003 365.492 138.824 366.101 137.645C366.668 136.506 367.357 135.632 368.169 135.022C369.02 136.323 370.176 137.38 371.635 138.194C373.135 139.048 375.041 139.475 377.353 139.475C381.083 139.475 385.158 137.848 389.578 134.595C394.038 131.341 397.828 126.604 400.952 120.382C404.073 114.16 405.635 106.86 405.635 98.4825C405.635 97.3845 405.533 96.3883 405.331 95.4935C405.127 94.5583 404.783 93.6433 404.297 92.7485C405.472 91.8945 406.83 91.2235 408.372 90.7355C409.953 90.2475 411.453 90.0035 412.873 90.0035C414.737 90.0035 416.136 90.4915 417.069 91.4675C418.002 92.4435 418.468 93.9075 418.468 95.8595C418.468 102.366 416.704 109.849 413.177 118.308C409.649 126.726 404.701 133.944 398.336 139.963C392.011 146.022 384.834 149.052 376.805 149.052ZM391.098 136.12C386.963 136.12 383.921 135.022 381.975 132.826C380.029 130.63 378.812 127.946 378.326 124.774C377.879 121.602 377.636 117.393 377.596 112.147C377.555 108.568 377.453 105.721 377.292 103.607C377.129 101.451 376.744 99.3975 376.136 97.4455C375.568 95.4935 374.655 93.9278 373.399 92.7485C375.71 90.9185 378.244 90.0035 381.002 90.0035C383.961 90.0035 386.111 90.9998 387.449 92.9925C388.827 94.9445 389.658 97.3438 389.943 100.191C390.267 103.037 390.408 106.84 390.369 111.598C390.328 115.949 390.429 119.406 390.673 121.968C390.916 124.53 391.585 126.685 392.68 128.434C393.775 130.182 395.517 131.057 397.911 131.057L391.098 136.12Z" fill="#5F2191"/>
</g>
<defs>
<clipPath id="clip0_149_285">
<rect width="221.194" height="125.103" fill="white" transform="translate(198.377 23.9485)"/>
</clipPath>
</defs>
</svg>
